<svg width="437" height="437" viewBox="0 0 437 437" fill="none" xmlns="http://www.w3.org/2000/svg">
<rect width="437" height="437" rx="218.5" fill="black"/>
<path d="M218.39 329.7C157.073 329.7 107.171 294.246 107.03 250.627C106.923 248.986 106.881 247.339 106.901 245.69C105.063 244.571 103.304 243.228 101.646 241.68C95.3996 235.829 91.8169 227.905 91.5471 219.36C91.2773 210.803 94.3571 202.657 100.219 196.425C106.055 190.195 113.979 186.609 122.525 186.34C129.597 186.115 136.386 188.18 142.048 192.213C161.915 179.621 184.567 172.447 208.041 171.315L220.487 112.816C220.506 112.664 220.532 112.515 220.563 112.378C221.203 109.464 222.943 106.974 225.458 105.375C227.967 103.776 230.957 103.256 233.862 103.905L278.243 112.774C281.219 113.37 283.153 116.264 282.557 119.242C281.964 122.218 279.061 124.146 276.091 123.556L231.342 114.614C231.331 114.673 231.319 114.735 231.308 114.791L219.248 171.483C242.475 173.119 273.031 180.663 293.656 193.3C298.796 189.591 304.902 187.469 311.241 187.247C328.888 186.677 343.77 200.485 344.422 218.09C344.618 229.195 339.004 239.578 329.877 245.546C329.903 247.244 329.858 248.941 329.748 250.627C329.602 294.244 279.705 329.7 218.39 329.7ZM123.553 197.318C123.325 197.318 123.098 197.321 122.87 197.33C117.264 197.507 112.066 199.859 108.236 203.95C104.38 208.05 102.36 213.397 102.537 219.014C102.714 224.62 105.066 229.819 109.157 233.649C110.908 235.284 112.794 236.554 114.749 237.417C116.865 238.353 118.172 240.514 118.014 242.821C117.852 245.223 117.852 247.659 118.014 250.065C118.023 250.188 118.026 250.315 118.026 250.439C118.026 288.081 163.048 318.705 218.39 318.705C273.731 318.705 318.755 288.081 318.755 250.439C318.755 250.312 318.761 250.188 318.769 250.062C318.932 247.659 318.932 245.223 318.769 242.821C318.618 240.609 319.812 238.521 321.796 237.527C329.006 233.921 333.575 226.407 333.432 218.385C333.008 206.928 323.184 197.889 311.621 198.232C306.515 198.409 301.62 200.485 297.849 204.076C295.975 205.861 293.106 206.1 290.964 204.638C270.536 190.723 235.326 182.681 212.509 182.164C188.281 182.574 164.86 189.976 144.777 203.565C142.644 205.004 139.8 204.779 137.929 203.017C133.998 199.33 128.917 197.318 123.553 197.318ZM215.058 303.222C198.819 303.222 182.844 297.894 169.761 288.059C167.333 286.235 166.847 282.79 168.67 280.362C170.497 277.932 173.939 277.448 176.367 279.269C188.259 288.208 202.935 292.808 217.708 292.167C217.859 292.161 218.014 292.161 218.168 292.167C232.952 292.743 247.629 288.202 259.512 279.269C261.178 278.019 263.407 277.811 265.273 278.746C267.136 279.677 268.313 281.582 268.313 283.664V284.386C268.313 287.126 266.304 289.402 263.679 289.818C250.29 299.068 234.146 303.758 217.941 303.165C216.98 303.202 216.016 303.222 215.058 303.222Z" fill="white"/>
<path d="M157.31 236.487C157.31 226.466 165.481 218.292 175.504 218.292C185.525 218.292 193.699 226.464 193.699 236.487C193.699 246.507 185.528 254.682 175.504 254.682C165.439 254.586 157.31 246.507 157.31 236.487Z" fill="white"/>
<path d="M260.33 255.988C260.015 255.988 259.745 255.988 259.425 255.988L259.563 255.311C249.542 255.311 241.368 247.14 241.368 237.116C241.368 227.096 249.539 218.922 259.563 218.922C269.586 218.922 277.757 227.093 277.757 237.116C278.162 247.14 270.35 255.581 260.33 255.988Z" fill="white"/>
<path d="M295.171 144.223C282.546 144.223 272.275 133.953 272.275 121.327C272.275 108.702 282.546 98.4316 295.171 98.4316C307.796 98.4316 318.067 108.702 318.067 121.327C318.067 133.953 307.793 144.223 295.171 144.223ZM295.171 109.43C288.61 109.43 283.271 114.769 283.271 121.33C283.271 127.892 288.61 133.231 295.171 133.231C301.732 133.231 307.071 127.892 307.071 121.33C307.071 114.769 301.729 109.43 295.171 109.43Z" fill="white"/>
<path fill-rule="evenodd" clip-rule="evenodd" d="M294 238C294 257.33 278.33 273 259 273C239.67 273 224 257.33 224 238C224 218.67 239.67 203 259 203C278.33 203 294 218.67 294 238ZM287.088 273.159C279.39 279.318 269.625 283 259 283C234.147 283 214 262.853 214 238C214 213.147 234.147 193 259 193C283.853 193 304 213.147 304 238C304 248.625 300.318 258.39 294.159 266.088L322.536 294.464C324.488 296.417 324.488 299.583 322.536 301.536C320.583 303.488 317.417 303.488 315.464 301.536L287.088 273.159Z" fill="white"/>
</svg>
